<?xml version="1.0" encoding="UTF-8"?>
<svg data-bbox="284 313 505 466" xmlns="http://www.w3.org/2000/svg" height="1080" width="1080" viewBox="0 0 1080 1080" data-type="ugc">
    <g>
        <path fill="#092925" d="M531 313h30l20 3 25 6 24 9 25 13 19 13 13 11 12 11 12 13 11 14 11 16 8 14 8 16 7 19 5 19 2 9v7l-7 2H357l-36-1v-10l5-21 7-20 12-25 10-16 9-12 11-13 7-8 16-16 14-11 18-12 17-9 28-11 33-8zm25 16v2h3v-2z"/>
        <path fill="#092A26" d="m341 602 215 1h207l-1 8-7 23-11 24-9 15-9 13-9 11-9 10-15 15-11 9-12 9-20 12-19 9-19 7-19 5-21 4-21 2h-20l-21-2-27-5-19-6-17-7-23-12-19-13-11-9-10-9-17-17-8-10-10-14-10-17-12-27-6-20-1-7 1-1z"/>
        <path fill="#C9E9D8" d="M536 323h11l22 2 25 5 16 5 15 6 16 8 14 8 19 14 15 14 10 10 9 11 3 4-1 5-3 5-4 2-3 1-3-20-1-1-4 20-9-6-7-4-5-1 4 11 10 16 7 10 1 3-2 3-6-2-4-4-11-21-12-17-12-13-13-10-17-10-5-1-4 8 6 2 12 7 12 9 13 13 11 16 8 15 4 11-1 2-11-6-18-10-25-14-32-18-19-9-15-4h-20l-16 5-23 11-24 13-21 12-25 14-9 5 1-7 8-18 10-15 11-12 7-7 14-10 11-6-2-8-9 4-12 7-14 11-12 13-12 18-10 18-6 6h-4l-1-5 13-17 5-11 1-8-6 2-10 8h-2l-3-17v-3h-2l-2 11-1 8h-3l-8-7-2-5 9-11 11-12 7-7 11-9 13-10 15-9 16-8 20-8 21-6 25-4zm20 6v2h3v-2z"/>
        <path fill="#A9D6C6" d="M538 332h9l9 3 8 6 6 8 3 9v11l-4 11-7 8-7 5-7 2v2l-16 1-16 5-23 11-24 13-21 12-25 14-9 5 1-7 8-18 10-15 11-12 7-7 14-10 11-6-2-8 3 1 2-2 3 1 1-2h2v-6l4-2 9 1h3l1 2 5-5h2l1-9 6-9 5-6 12-6z"/>
        <path fill="#A9D6C7" d="M573 359h1v10h3v2l6-1 2-4 2 1h2l2-2h5l7 5 7 2 3 3-3 3-3 6 6 2 12 7 12 9 13 13 11 16 8 15 4 11-1 2-11-6-18-10-25-14-32-18-19-9-22-6 3-2 9-3 10-9 4-9z"/>
        <path fill="#F4C18F" d="M534 406h14l13 4 9 7 5 6 8 15 8 9 14 9 11 5 16 5 20 3 45 1-2 5-4 4h-54l-15-3-19-7-15-8-10-8-7-9-8-16-5-6-10-5h-14l-10 5-5 5-10 17-5 6-11 9-13 8-16 7-14 4-7 1h-56l-6-9 51-1 17-3 21-7 13-7 12-9 7-11 7-13 8-7 9-4z"/>
        <path fill="#092A27" d="M538 332h9l9 3 8 6 6 8 3 9v11l-4 11-7 8-7 5-7 2h-13l-8-3-8-6-4-5-3-5-2-10 1-11 6-12 7-6 9-4z"/>
        <path fill="#F4C292" d="m538 425 9 1 6 4 4 5 4 11 7 14 7 7 17 10 8 6 6 9 1 6h-9l-4-8v-2h-2v-2l-4-2-20-12-7-6-5-8-1-5-6 4h-2l5 10 8 9 8 5 16 8 4 5v4h-14l-4-8-9-8-12-7-7-5-4 1-15 10-11 7h-2v2h-2l-2 5-3 3h-19l2-5 8-6 19-8 11-7 7-9 2-3v-3l-7-4-2 6-7 8-9 7-20 9-10 9-3 6h-8l1-7 6-8 5-4 20-10 11-8 6-7 5-11 4-10 7-6z"/>
        <path fill="#C8E8D7" d="M709 612h41l-2 9-1 2h-30l-16 3-12 4-9 4h-2l-2 4-12 10-9 11-13 18-11 13-10 8-16 8-38 15-23 10-8 3 2-4 12-12 14-8 14-6 17-6 16-8 8-6 10-9 7-8 8-11 8-10 12-13 12-9 17-8z"/>
        <path fill="#C7E7D6" d="M415 614h10l25 5 19 7 13 7 11 8 10 9 12 11 13 8 12 5 16 5 6 1h24l17-4 16-7 2 1-8 7-4 3-8 4-3 3-14 5-5 1h-19l-20-4-14-6-11-8-10-9-8-8-12-9-14-8-20-7-27-7-5-6z"/>
        <path fill="#A9D5C5" d="m409 371 2 1-7 8h-2l1 5 12-1 2-1v-3h2l1-3 5-3h9l3 4v2l16-3 4-1h2l5-1 4 2-15 9-14 11-12 13-12 18-10 18-6 6h-4l-1-5 13-17 5-11 1-8-6 2-10 8h-2l-3-17v-3h-2l-2 11-1 8h-3l-8-7-2-5 9-11 11-12 7-7z"/>
        <path fill="#A9D5C5" d="M652 374h7l3 3 1 8 12 1 5 1h8l-3-3 1-2 13 13 9 11 3 4-1 5-3 5-4 2-3 1-3-20-1-1-4 20-9-6-7-4-5-1 4 11 10 16 7 10 1 3-2 3-6-2-4-4-11-21-12-17-12-13-13-10-12-7 3-1 1-2h9l7-2z"/>
        <path fill="#A9D6C6" d="M350 653h17l23 3 19 4 33 11 25 12 11 7 11 9 14 14-5-2-9-5-2-1 1 2-4-1-12-6-2 1-19-10-26-10-28-8-21-4-19-2-7-11z"/>
        <path fill="#A1C390" d="M459 612h29l16 13 16 10 12 5 12 3 17 1 17-3 14-5 15-9 11-9 7-6h20l-2 4-14 11-18 12-16 8-17 5-13 2h-14l-13-2-16-5-16-8-19-13-15-8-13-5z"/>
        <path fill="#F4C08F" d="m533 412 1 4-3 2-10 6-6 10-7 11-4 5-11 9-13 8-16 7-14 4-7 1h-56l-6-9 51-1 17-3 21-7 13-7 12-9 5-5 4-1 1-5 5-8 5-4 1-3 11-4z"/>
        <path fill="#D0823D" d="M535 342h13l8 4 6 9 1 3v10l-3 7-5 6-6 3-10 1-9-3-6-5-3-5-1-4v-10l5-10 7-5z"/>
        <path fill="#ABD7C7" d="m619 710 2 1-7 7-4 5-21 9-24 12-38 15-19 6h-8l-19-4-1-2 24-5 20-6 28-11 25-11z"/>
        <path fill="#8AAE87" d="M660 612h16l-5 5-13 10-16 16-19 13-16 8-14 5-8 2h-23l-19-5-4-3h28l20-4 16-6 16-8 12-8 13-10 13-12z"/>
        <path fill="#AAD7C7" d="m640 661 2 4-1 2 2-1 1 2 5-2-4 7-8 10-8 9-13 9-18 8-31 12-23 10-8 3 2-4 12-12 14-8 14-6 17-6 16-8 8-6 10-9 7-8z"/>
        <path fill="#F5C595" d="M738 469h5l3 9-12 6-9 10-2 4h-86l-4-8v-2h85l8-11 8-6z"/>
        <path fill="#C7E7D6" d="M505 612h15l14 8 10 3 16 1 14-3 16-8 1-1h20l-5 5-10 7-15 7-16 4h-16l-16-4-16-8-10-8z"/>
        <path fill="#D0823D" d="m340 469 5 1 8 6 7 11 2 1 77 1-4 6-4 3h-75l-9-12-7-6-2-1 1-7z"/>
        <path fill="#AAD7C7" d="M713 632h27l3 1-3 9-1 1h-21l-15 3-12 5-12 9-9 9-10 13-5 3-3 3-6 3-2-1 13-19 7-9 9-10 4-4 6 2 7-1 3-3v-8l9-4z"/>
        <path fill="#D0823D" d="m534 457 2 1h9l2-1 5 10 8 9 8 5 16 8 4 5v4h-14l-4-8-9-8-12-7-7-5-4 1-15 10-11 7h-2v2h-2l-2 5-3 3h-19l2-5 8-6 19-8 11-7 7-9z"/>
        <path fill="#3A5F4F" d="m396 712 18 1 18 5 20 10 19 13 5 4 5 2 1 2-8 2h-5l-8-5-12-4-11-7-14-7-7-1-10-5-3-2v-2l-5-2z"/>
        <path fill="#101411" d="M529 533h12l10 2 5 5 1 3v8l-4 6-5 3 4 5 8 16 5 1v3h-10l-12-22-2-1-12-1v21h7l-1 3h-19v-3h6v-45h-5v-3zm0 4v21h13l5-2 3-5v-8l-4-5-3-1z"/>
        <path fill="#F7C493" d="M535 342h13l8 4 6 9 1 8h-43l1-7 4-8 7-5z"/>
        <path fill="#0C0F0D" d="M483 534h5l4 9 15 38 5 2-1 2h-16v-3h4l-4-11h-22l-4 11h3l-1 3h-10l-1-3 4-1 14-36zm0 9-5 11-4 12 1 1h18l-1-6-7-18z"/>
        <path fill="#EAC49A" d="M534 406h14l13 4 9 7 5 6 8 15 8 9 9 6-4 2-5-3v-3l-4-1-10-13-3-7-3-5-10-7-5-1 1 2 3 1 3 5 1 3h2l1 5h-2l-6-8-8-5-3-1-15-1v-3l-13 3-4 1-1 4-6 5-5 11-5 2 2-5 8-15 8-7 9-4z"/>
        <path fill="#EBF4EF" d="m356 654 28 1 25 5 33 11 19 9v3l-8-1-13-4-15-5-7-2-19-5-23-4-3-3-15-1-4-3z"/>
        <path fill="#1F3D32" d="m509 682 5 4 4 4v2l7 2 8 4 9 3h4l-2-2 12 1 3 3h-2l-1 3h-4l-1 3-6 4-5 4h-6l-12-6-6-8-6-14z"/>
        <path fill="#0E1310" d="M640 534h5l14 36 4 10v2l5 1-1 2h-10l-5-1v-2h4l-4-10v-2h-23l-3 10-1 2h5v3h-13v-3l4-1 8-21 9-24zm0 8-5 11-4 11v3h19l-1-6-8-19z"/>
        <path fill="#A0C391" d="M660 612h16l-5 5-13 10-16 16-6 4-3-1-4 1-16 6-10 3-8 3-5 2-4-1 12-5 18-8 15-10 13-10 13-12z"/>
        <path fill="#D0823D" d="m584 422 6 2 26 14 21 12 13 8-3 1-14-2-16-5-16-8-10-9-5-7z"/>
        <path fill="#A0C290" d="M392 612h9l5 8 9 13 9 10 12 10 12 8 3 3-6-1-20-8-9-8-8-7-8-9-6-10-3-8z"/>
        <path fill="#0C0F0D" d="M565 534h18v3h-5l7 20 6 15 1 3h2l10-27 4-11-5-1 1-2h13v3h-5l-3 9-11 30-4 8-5 1-3-5-12-32-4-9v-2h-5z"/>
        <path fill="#89AD86" d="m619 669 2 1-8 7-4 3-8 4-3 3-14 5-5 1h-19l-7-1 1-2-11-4 4-1 5 2h3l-6-2v-1h8l-2-2h13v-1l18-1 17-4z"/>
        <path fill="#D08440" d="m495 423 2 1-6 10-9 9-12 7-16 6-17 3-4-1 24-14 22-12z"/>
        <path fill="#0D100D" d="M429 533h13l10 3 2 2v9h-4l-4-7-6-3h-11l-7 4-3 6-1 4v17l3 8 5 5 3 1h11l6-4 4-6h5l-2 5-5 5-6 3h-16l-8-5-5-6-3-8v-13l3-9 5-6 7-4z"/>
        <path fill="#A6D3C4" d="m636 698 7 1 4 5v4h19l14 3 5 2-1 3-6 1-4-1v1l-14-1h-12l-14 3h-7l5-5 1-2-2-4 1-7z"/>
        <path fill="#D1833F" d="m352 441 5 2 6 5 4 11 7 18v2l-6 1-5-5-9-10-9-6 1-6z"/>
        <path fill="#A9D5C5" d="m418 618 16 1 21 5 4 2-2 1-17-4-8-1 13 3 14 3 13 6 7 4-2 1v2l4 1 3 2v2l3 1v2l4 2h-3l-17-10-20-7-27-7-5-6z"/>
        <path fill="#1B3A30" d="M564 755h15l9 3 4 2-1 3-23 4-12 1h-25l4-3 17-7z"/>
        <path fill="#D0833F" d="M729 443h3l6 11v5l-11 6-6 5-7 9-7 1-3-2 11-16 5-7 2-4z"/>
        <path fill="#82A681" d="m438 641 7 1 16 5 12 5 11 7 10 10 2 4-1 3-1 1h-2l-1 2-7-7v-3l-13-8-24-12-3-2v-2l-5-2z"/>
        <path fill="#ACD9C9" d="M625 612h20l-2 4-14 11-15 10-3-1 3-1 1-3 9-5 14-12-6 4-12 9-7 4h-3v-2l-11 6-13 6-10 2 2-3 14-5 15-9 11-9z"/>
        <path fill="#A5D3C4" d="m677 648 6 2 7-1h3l-15 12-8 8-10 13-5 3-3 3-6 3-2-1 13-19 7-9 9-10z"/>
        <path fill="#A4D2C3" d="m396 712 18 1 18 5 20 10 19 13 7 5-3 1-13-7-5-3-4-1-3-2-5-2-16-9-5-1-2 1-20-5-6-5z"/>
        <path fill="#89B8AE" d="m403 690 19 1 19 5 9 4v2l-10 1-18-4-20-2-15 1-5 1v-2l-4-2 3-2 10-2z"/>
        <path fill="#CF823D" d="m539 480 6 2 14 9 4 5v2h-7l-7-2-7-5-8 3-5 3-4 1h-9l3-5 14-9z"/>
        <path fill="#A4D2C3" d="M477 722h7l9 3 9 7 8 9-1 3h-6l-5-4v-2l-3 1-16-8-4-1-1 2-8-4-1-2 7-3z"/>
        <path fill="#204035" d="m508 640 5 2 17 7 12 3 9 1h14l17-3 3 1-6 2-12 2h-22l-2 1v3l13 3 11 1v1h-30l-5-2 2-4h4l-1-2-3-1-2 4-4-1-8-5-7-5-5-6z"/>
        <path fill="#0C2E29" d="m621 407 7 1 6 4 10 9 4 6-1 5-5 2-5-5-9-8-9-2-2-3 1-7z"/>
        <path fill="#395E4F" d="m395 696 20 1 22 4 7 1h6v1l-15 4h-7l-14-3h-26l-5-5 4-2z"/>
        <path fill="#9FC392" d="m368 416 2 1 2 9 9 13 7 9-2 5-6-1-5-5-8-10-7-6 1-5z"/>
        <path fill="#8AAE87" d="M370 612h10l6 15 8 12 8 8v2l-12-3-9-10-8-14-3-7z"/>
        <path fill="#1C3B31" d="m410 724 11 3 5 1 19 10 8 5 6 1 9 5 5 2-4 2h-9l-13-6-11-6-18-10-8-6z"/>
        <path fill="#EAC093" d="m556 456 3 1 4 7 2 1v2h2l4 4 11 5-4-4-6-4v-2l5 2 10 6 11 7 6 7 3 7v3h-9l-4-8v-2h-2v-2l-4-2-20-12-7-6-5-8z"/>
        <path fill="#0C2D29" d="M456 407h7l3 3v6l-2 3-9 2-12 12-4-1-1-1v-6l6-8 9-8z"/>
        <path fill="#F4C697" d="m340 469 5 1 8 6 7 11 2 1 77 1-4 2h-76l-2-1v-2l-3-1v-2l-5-2-10-6z"/>
        <path fill="#88B7AD" d="M677 690h20l10 2-4 5-3 2h-33l-3-1h-9l3-3 12-4z"/>
        <path fill="#A8D5C6" d="m593 707 5 1-3 2-28 11-23 10h-2l2-4 6-5 10-8 13-5 5 1v2z"/>
        <path fill="#9EC18F" d="M348 612h11l4 12 6 12 5 6v2h-8l-8-9-7-12z"/>
        <path fill="#1A3A30" d="m419 621 5 5 27 7 9 3-4 9-11-2-9-1-7-8-4-5-6-5z"/>
        <path fill="#3C6252" d="m471 699 6 2 8 5h2l-5-3 2-1 17 10 10 3 8 5 4 2v3h-10l-14-6-14-8-8-5-5-2v-2h-3l1-2z"/>
        <path fill="#1B2012" d="m539 469 5 1 11 8 10 6 7 7 2 7h14l-3-8 4 2 2 5-4 3h-12l-3-1-5-10-13-8-11-8-6 1-6 5-11 6-8 5-5 8-5 2h-18l1-2 18-1 4-5 1-2h2v-2l24-15z"/>
        <path fill="#87B7AC" d="M622 729h26l12 3-3 3h-17l-4-1v1l-16 1-13 2-1-1-6-1 2-2 14-4z"/>
        <path fill="#BEE1CF" d="M627 677h2l-2 4-13 11-10 6-24 10-1 2 3 1-4 1-1-2-7 1-10 4-5 4h-2l-1 3-6 4-5 6-5 2 2-4 12-12 14-8 14-6 17-6 16-8 8-6z"/>
        <path fill="#8AAF8C" d="m716 418 4 4 6 10-19 19h-7l1-4 10-13 3-6z"/>
        <path fill="#EDE9DA" d="M535 342h13l8 4 3 4v2h-35l2-5 6-4z"/>
        <path fill="#87B6AB" d="m457 688 9 3 4 2-1-2 4 1 6 4 5 1 5 3 14 12-2 1-12-7-2-1 1 2-4-1-12-6-2 1-15-8 2-3z"/>
        <path fill="#1C2113" d="M337 474h1v5l5 2 7 7 6 9h75l5-4 2-3h2l-2 5-5 5h-77l-4-2-7-11-8-7z"/>
        <path fill="#1C2113" d="m744 470 3 4v5l-11 6-5 5-5 8-3 2h-86v-2h86l2-5 9-10 10-5h2l-2-5z"/>
        <path fill="#1C2214" d="m584 423 2 2 4 7 8 9 14 8 17 6 9 2 11 1-25-14-17-10 2-1 14 7 15 9 11 6 2 4 2 1-8 1-17-3-12-4-16-8-12-11-4-7z"/>
        <path fill="#8AAE87" d="m413 637 8 3 12 11 15 10 3 3-6-1-20-8-9-8-3-3-1-3h2z"/>
        <path fill="#395E4F" d="M635 733h7v1h17l-1 2-9 4-25 1-9 1-7-3 2-2 10-2 15-1z"/>
        <path fill="#141C16" d="m479 542 1 2h2l-1 5-6 17 18 1 2 3-22 1-4 11h3l-1 3h-10l-1-3 4-1 14-36z"/>
        <path fill="#ECCAA3" d="m467 460 2 1-1 2-10 5-15 3-4 1-51 1 2 6h-3l-6-9 51-1 17-3z"/>
        <path fill="#385D4D" d="M564 755h15l7 3v1l-16 1-18 4-12 4h-9l4-3 17-7z"/>
        <path fill="#3E6354" d="m667 714 8 1 6 2-4 4-6 3-9-1-12-3-16-1v-1l14-3h12l11 1z"/>
        <path fill="#0C241E" d="m538 434 7 1 4 4v6l-5 5h-6l-5-4-1-6 4-5z"/>
        <path fill="#1C2113" d="m351 441 1 2-6 13v3l9 6 9 10 4 4h6l-4-10-5-13-3-8-6-5 1-2 6 4 4 7 7 20 2 3v5l-8 2-4-1-1-4-3-1-6-8-10-7-1-5 6-13z"/>
        <path fill="#A3D1C3" d="m586 744 16 2 12 6 2 3-8 3-5-1-10-6-12-4v-2z"/>
        <path fill="#D0823D" d="M736 478h8l-12 8-7 8-2 4h-86l1-2 80 1 2-5 3-4 2-3 9-6z"/>
        <path fill="#1C2113" d="m727 443 2 1-8 9-2 5-8 11-6 9 7 1 5-5 7-8 10-6 3-1-1-7-2-5 3 1 3 6v6l-5 3-6 4-5 2-1 3-3 3-5 6-8 1-5-2 3-7 5-7h2l2-6 9-14z"/>
        <path fill="#B7DCC8" d="m625 612 6 1-5 5-13 10-11 7-16 7-10 2 2-3 14-5 15-9 11-9z"/>
        <path fill="#A1CFC1" d="m403 690 19 1 19 5 7 3v2l-7-1-7-2-18-4h-16l-21 2-1-2 13-3z"/>
        <path fill="#A2CFBE" d="M428 627h9l16 3 12 4 16 8 3 2v2l3 1v2l4 2h-3l-17-10-20-7-23-6z"/>
        <path fill="#3D6253" d="m461 708 5 1 7 3 1 2-12 4-10 1v-2l-5-1-2-1v-2l11-4z"/>
        <path fill="#C5E6D4" d="m636 698 7 1 4 5v6l-9 3-5-2-2-3 1-7z"/>
        <path fill="#1B2013" d="M354 477h2l5 8 2 1 75 1 2 2h-78l-4-4-4-6z"/>
        <path fill="#1B3A30" d="M624 740h25l-3 3-12 5-8 1-7-4-4-2 3-2z"/>
        <path fill="#3D6253" d="m470 730 4 1 5-1 17 8h2l7 7-11 1-9-6-12-7-3-1z"/>
        <path fill="#A0C392" d="M370 612h10l6 15v2l-3 1-1-1-1 2-4-1-7-15z"/>
        <path fill="#131914" d="M604 534h13v3h-5l-3 9-11 30-3-1 2-9 10-26 1-3-5-1z"/>
        <path fill="#0D2F2A" d="M652 374h7l3 3 1 5-3 5-2 1h-6l-4-3v-8z"/>
        <path fill="#8BBBB1" d="m409 426 2 4h2l-2 6-6 10-6 6h-4l-1-5 13-17z"/>
        <path fill="#0C2E29" d="M425 374h7l3 3 1 5-3 5-2 1h-6l-4-4v-7z"/>
        <path fill="#A5D2C3" d="m532 677 6 2h8l8 2v1h-5v3l7 1-1 2-5-1h-1l7 3v1h-8l-13-4-2-2h4l-7-4-1-2h3z"/>
        <path fill="#1B3A30" d="m518 719 6 2 6 3-1 4-6 5-4 1-2-1v-2l-4-1-12-9 2-1 10 4h10v-1l-5-1z"/>
        <path fill="#1C2113" d="m520 356 1 2v10l3 7 5 5 5 3 10 1 9-3 5-5 3-5 2-13 2 3-1 11-5 9-11 6h-12l-8-4-5-4-4-8-1-9z"/>
        <path fill="#8ABAB0" d="M667 669h2l-2 4-8 10-4 2-3 3-6 3-2-1 12-18h3l6-2z"/>
        <path fill="#1C2114" d="m610 472 9 2 11 3 7 1h54l3-2-1 4-5 1h-48l-12-2-12-3-6-3z"/>
        <path fill="#8ABAB0" d="m430 721 9 3 15 8 2-1 15 10 7 5-3 1-13-7-5-3-4-1-3-2-5-2-16-9z"/>
        <path fill="#1C2113" d="m496 426 1 2-1 2h-2l-1 5-4 5h-2v2l-11 7-15 7-11 3-10 2h-7v-2l25-5 18-8 9-7 7-8z"/>
        <path fill="#8AAE87" d="m361 622 3 4 6 11 4 5v2h-8l-8-9-2-5 4-4z"/>
        <path fill="#F5C495" d="M738 469h5l3 9-10 1-8 5h-2l-1 2-1-3 3-5 5-6z"/>
        <path fill="#151C16" d="M429 533h13l10 3 2 2v9h-4l-4-7-6-3h-11l-6 2v-4z"/>
        <path fill="#8AB9AB" d="M680 435h3l9 13 1 3-2 3-6-2-4-4-5-10 1-2z"/>
        <path fill="#86B6AC" d="M646 712h20l1 3 7 1v1l-14-1h-12l-14 3h-7l5-5 2-1v2z"/>
        <path fill="#ABD8C8" d="m418 618 16 1 21 5 4 2-2 1-17-4-8-1 13 3 8 2v1l-9-1-6-1h-15l-4-5z"/>
        <path fill="#A3D0C2" d="M677 690h20l10 2-2 3-11-1h-14l-20 2 1-2 9-3z"/>
        <path fill="#D0823D" d="M520 363h43l-1 4h-41z"/>
        <path fill="#EAC194" d="m539 480 6 2 14 9 2 4-9-4-8-5-6-1-17 10-4 2 2-4 14-9z"/>
        <path fill="#0D2E29" d="m468 350 7 1 2 2v6l-4 4h-5l-4-5 1-5z"/>
        <path fill="#1B3A30" d="m366 677 14 1 12 3-1 2-15 2h-6l-5-6z"/>
        <path fill="#EEBC8A" d="m461 483 1 2-6 13h-9l1-6 3-6z"/>
        <path fill="#1B3A30" d="m372 443 5 5 1 3 8 1 2-2v10l-1 2-8 1-2-2-3-13z"/>
        <path fill="#E5AC75" d="m584 422 6 2 26 14 28 16-1 2-21-11-7-4-16-9-5-2v-2l-6-1v-2h-3z"/>
        <path fill="#0E2F2A" d="m615 350 5 1 3 3-1 6-3 3-7-1-2-3 1-6z"/>
        <path fill="#BFE2D1" d="M526 747h5v2l-22 8-14 3h-9v-2l26-6z"/>
        <path fill="#97C6B9" d="M622 729h17l2 1v2l-27 1v4l-7 1-1-1-6-1 2-2 14-4z"/>
        <path fill="#1C2113" d="m541 490 7 4 3 2 11 2-3 2-10-1-8-4-5 2-4 2-13 1-3-2 13-2z"/>
        <path fill="#E6BA8C" d="m612 483 7 1 5 3 2 7v4h-8l-5-12z"/>
        <path fill="#8ABAAD" d="m370 439 3 1v2l8-3 7 9-2 5-6-1-5-5-5-7z"/>
        <path fill="#E6EEE3" d="M534 406h14l13 4 9 7 2 4-9-6-10-4-5-1h-14l-8 1 4-4z"/>
        <path fill="#0E2F2A" d="m472 395 7 1 2 3v5l-5 4-6-2-2-6 2-4z"/>
        <path fill="#E9BE92" d="m539 431 6 1 3 1 3 6v7l-3 1v-8l-1-3-9-1-6 5v-4zm-8 10 2 3 5 5h9l-4 4-7-1-5-5-1-5z"/>
        <path fill="#35594A" d="M707 692v3l-8 7-6 3-17-4-2-1v-2h26z"/>
        <path fill="#9AC9BC" d="m593 707 5 1-3 2-28 11-7 1v-2l16-7-2-2 4-1v2z"/>
        <path fill="#E0D1B2" d="m538 425 9 1 6 4v3l-9-3h-8l-5 3-5 5-3 1 2-6 7-6z"/>
        <path fill="#8AAE87" d="m334 612 3 1 4 12 5 10 5 7v1h-6l-3-5-6-15-2-7z"/>
        <path fill="#13342D" d="m288 545 7 1 2 6-2 4-7 1-4-4v-5z"/>
        <path fill="#0B2C28" d="M780 545h6l3 3v6l-3 3h-6l-3-3v-6z"/>
        <path fill="#ECC79F" d="M648 470h49l-2 5-4 4-4-1 4-3 1-3h-44z"/>
        <path fill="#A8CAA8" d="m438 641 7 1 16 5 12 5 11 7-1 3-14-9-11-4-8-2-1 2-5-2v-2l-5-2z"/>
        <path fill="#0E2F2A" d="m608 395 5 1 3 3-1 6-5 3-5-2-2-5 3-5z"/>
        <path fill="#8BBBB1" d="M693 661h2l-1 8-2 4-12 3-2 1 2-5 8-8z"/>
        <path fill="#97C6BA" d="m457 688 9 3 5 3 7 3 3 3-6-2-2 2-3 1-15-8 2-3z"/>
        <path fill="#D28643" d="M744 488h5l1 9-2 1h-14l4-6z"/>
        <path fill="#E8C69D" d="M521 410h4v2l-8 4-2 5-6 5-5 11-5 2 2-5 8-15 8-7z"/>
        <path fill="#C2E4D3" d="M713 632h27l3 1v2h-28l-12 2-1 2h-7l1-3 11-3z"/>
        <path fill="#9FC9B0" d="M638 612h7l-2 4-14 11-15 10-3-1 3-1 1-3 9-5 14-12z"/>
        <path fill="#9CC198" d="m619 669 2 1-6 6-24 6-9 1-14-1v-1l18-1 17-4z"/>
        <path fill="#A7D4C2" d="m368 416 2 1 2 9v4l-8 2-4-1 1-5z"/>
        <path fill="#395E4E" d="M493 674h3l2 2 8 22-1 2-7-10-6-9-1-2z"/>
        <path fill="#0E2F2A" d="M443 359h6l3 4-1 5-2 2h-6l-3-4 1-5z"/>
        <path fill="#E6CEAA" d="m613 462 9 1 15 4 9 2-3 3-12-2-12-3-6-4z"/>
        <path fill="#375C4D" d="M693 669h1v5h-2l-1 5-7 2h-10l2-5 5-1 11-3z"/>
        <path fill="#EBCAA3" d="m523 351 29 1-1 2h-24l26 1 1 2-32 1-1-2z"/>
        <path fill="#9CC297" d="m555 682 27 1v1h-22l1 4 4 4h-12l1-2-11-4 4-1 5 2h3l-6-2v-1h8z"/>
        <path fill="#161D18" d="M450 572h5l-2 5-5 5-6 3h-16l3-2 11-1 6-4z"/>
        <path fill="#315446" d="M693 411h1v11l-1 12h-2l-2-5-8-13 1-2 9 7z"/>
        <path fill="#385D4D" d="m719 674 2 1-7 9-12-3 2-4 13-2z"/>
        <path fill="#E4C59B" d="m467 460 2 1-1 2-10 5-15 3-10 1-1-3 17-3z"/>
        <path fill="#8EBDB3" d="M425 444h6l1 1 4 1-20 11-2 1 1-7 2-2 4 2-1-4h4z"/>
        <path fill="#10312C" d="M591 365h5l3 3v5l-3 3-7-1-1-7z"/>
        <path fill="#11322C" d="M489 365h5l3 4-1 5-2 2-7-1-1-7z"/>
        <path fill="#1C2113" d="m547 457 2 1 7 12 12 9 12 5 5 4-1 2-16-8-9-6-8-9-4-7z"/>
        <path fill="#E6BE92" d="m553 432 3 1 4 10 5 12 6 8 1 2-5-1-8-13-6-16z"/>
        <path fill="#8CBCB2" d="M659 447h6l4 2 2 2 2 8-12-6-7-4 4-1z"/>
        <path fill="#1D2416" d="m566 433 2 2 6 12 7 8 14 9 10 5-2 2-8-4-12-8-11-9-7-14z"/>
        <path fill="#A5D3C4" d="M416 692h11l16 5 5 2v2l-7-1-7-2-18-4z"/>
        <path fill="#E6B889" d="M520 446h2l-1 5-1 2h-2l-1 5-5 4-3 4h-3v2l-5 2-1 2h-4v2l-10 4-3-1 21-11 10-9z"/>
        <path fill="#A5D1BF" d="m716 418 4 4 6 10-4 1-7-2-1 2 1-12z"/>
        <path fill="#1C2214" d="m727 443 2 1-8 9-2 5-8 11-6 9v2l-3-1 3-6 5-7h2l2-6 9-14z"/>
        <path fill="#C6E6D6" d="m625 612 6 1-5 5-13 10-4-1 5-4 6-7z"/>
        <path fill="#345849" d="m407 441 1 4-6 10-3 4-4-1-2-5v-7l2-3 2 1-2 3v5l5-2 6-7z"/>
        <path fill="#88B7AD" d="m399 715 16 1 9 3 2 2-4 2-20-5z"/>
        <path fill="#283C2D" d="M719 485v3l-1 1h-57v-1l35-1 20-1z"/>
        <path fill="#1E2618" d="m607 433 7 2 10 6 16 9 9 5 2 4 2 1h-3l-4-4-22-12-17-10z"/>
        <path fill="#9FC291" d="m713 430 6 1 2 1 1-1 1 2 2 1-8 6-8-1 2-5z"/>
        <path fill="#12150E" d="M625 570h3l-1 7-2 5h5v3h-13v-3l4-1z"/>
        <path fill="#1C2113" d="M743 487h7l2 7v4l-4 2h-12l-4-4 4-5zm1 1-6 4-4 6h14l2-1-1-9z"/>
        <path fill="#E5BB8D" d="m340 469 5 1 8 6 7 11 2 2-4-1-6-7-2-4-5-3-6 1z"/>
        <path fill="#C1E4D3" d="M627 677h2l-2 4-13 11-10 6-5 1 1-2h2v-2l14-8z"/>
        <path fill="#406452" d="m456 654 5 1 14 7 10 7 1 2-3 1-11-8-13-7z"/>
        <path fill="#CEEDDC" d="M375 659h9l12 2 2 2 13 4-4 1-19-4-12-2z"/>
        <path fill="#8AB59F" d="M428 627h9l16 3 12 4 10 5-2 1-19-7-7-2h-8l-11-3z"/>
        <path fill="#111712" d="M604 534h13v3h-5l-3 9-1 2h-2l-1 2 1-7 2-6-5-1z"/>
        <path fill="#9FCDBF" d="M713 653h2l-2 9-2 3h-5v-9z"/>
        <path fill="#E5C398" d="m578 430 2 3 7 10 8 7 5 4-4 1-5-3v-3l-4-1-10-13z"/>
        <path fill="#8AAE87" d="m518 692 7 2 8 4 16 5 5 1v1h-9l-16-5-10-6z"/>
        <path fill="#93B68A" d="m637 614 2 1-11 10-10 7-3 1-3 3-4-1 10-7 13-9z"/>
        <path fill="#19231C" d="m479 542 1 2h2l-1 5-6 16h-3l-1-2z"/>
        <path fill="#E7BA8B" d="m592 478 5 2 7 8 3 7v3h-9l-1-4 5 1-1-7-3-3v-2l-5-2z"/>
        <path fill="#79A79C" d="M620 732h19l-3 3-26 1 4-1v-2z"/>
        <path fill="#BCE1D0" d="m551 679 11 1 20 2v1h-25l1 2-9-1v-2l2-1z"/>
        <path fill="#AFDACA" d="m532 677 6 2h8l2 1v2h-4v2l-7 1-7-4-1-2h3z"/>
        <path fill="#87AB85" d="m503 634 5 2 8 4 11 6-1 2-6-2-16-8z"/>
        <path fill="#88B8AE" d="m461 708 5 1 4 3-3 1h-7l-1-1-9 3h-5v-2l11-4z"/>
        <path fill="#F7C594" d="m593 481 5 2 4 5 1 7-3 1-3-3-1-5-4-3z"/>
        <path fill="#FCFCFB" d="m526 349 33 1v2h-35v-2z"/>
        <path fill="#365B4B" d="M714 443v3l-7 9h-2l-2 4-3 1v-9l4-1 2 1 1-2z"/>
        <path fill="#18221B" d="M469 573h2l-2 9h3l-1 3h-10l-1-3 4-1 3-7z"/>
        <path fill="#BADFCD" d="M350 653h17l9 1v1h-20l2 2 12 1v1h-18l-2-3z"/>
        <path fill="#9FCDC0" d="m727 652 7 1-4 8-2 2h-4l1-7z"/>
        <path fill="#090908" d="M630 562h1v5h13l5 1v1l-20 1-1 2-2-1 1-6z"/>
        <path fill="#1E2517" d="M534 416h14l10 5 5 5v2h-2v-2l-5-2-1-3-7-2-1-1h-9l-9 1 2-2z"/>
        <path fill="#53775F" d="m375 411 7 6 4 5v7l-1-2h-2l-8-13z"/>
        <path fill="#486F60" d="M568 755h11l7 3v1l-14 1-6-2 2-1z"/>
        <path fill="#1A231B" d="m637 544 1 4-6 16h-3l-1-2 7-17z"/>
        <path fill="#D0823D" d="m334 489 4 1 5 6v2h-9l-1-3z"/>
        <path fill="#E6BD90" d="m500 438 1 2-5 5-2-1 5-5zm-8 7 2 1-3 5-12 6-3-1 14-9z"/>
        <path fill="#C4E6D6" d="m462 681 10 5 4 3v2l-9-3-11-4 3-2z"/>
        <path fill="#B3DDCD" d="m455 630 11 1 10 5 3 3-4 1-12-6-8-3z"/>
        <path fill="#1C2213" d="m336 488 5 2 4 6-1 3-2 1h-8l-2-1v-8l2-2v8l9 1-6-8z"/>
        <path fill="#A8D5C6" d="M622 729h17l2 1v2h-21z"/>
        <path fill="#B5DBCC" d="m553 716 2 1-3 5-6 4-5 6-5 2 2-4 12-12z"/>
        <path fill="#224136" d="m544 699 12 1 3 3h-2l-1 3h-10l3-2-4-2 1-1z"/>
        <path fill="#9BBF96" d="m334 612 3 1 4 12 1 5-3 1-5-15z"/>
        <path fill="#EABA8A" d="m493 424 2 1-5 4-18 10v-3z"/>
        <path fill="#F7C595" d="M536 429h8l5 2-1 2-9-1-8 5-1-4z"/>
        <path fill="#14352E" d="m594 345 5 1 1 1v5l-5 2-3-2v-5z"/>
        <path fill="#E9AE78" d="m464 440 4 1-23 13-3 1 1-3 18-10z"/>
        <path fill="#E7B98A" d="m566 431 3 1 7 14 1 4 3 1-1 3-7-8-6-13z"/>
        <path fill="#8DBCB0" d="m409 426 2 4h2l-2 6-2 3-5-1 1-5z"/>
        <path fill="#3B604F" d="m405 414 1 2-3 3-5 9-3 2v-9z"/>
        <path fill="#86B5AB" d="m457 688 5 2-1 2 10 6 1 3-6-2-11-6 2-3z"/>
        <path fill="#E6B788" d="M494 455h2v2l-14 9-11 5 1-3 10-5z"/>
        <path fill="#A3D0C1" d="m472 639 9 3 3 2v2l3 1v2l4 2h-3l-15-9z"/>
        <path fill="#BADFCF" d="M713 632h27l3 1v2l-23-1-7-1z"/>
        <path fill="#E8BC8F" d="m539 431 6 1 3 1 2 6-3-1v-2l-9-1-6 5v-4z"/>
        <path fill="#8CB8A5" d="m420 622 14 1 19 4v1l-9-1-6-1h-15z"/>
        <path fill="#96BA8C" d="M628 612h9l-4 2-9 8-12 8-2-1 20-15z"/>
        <path fill="#E9B685" d="m543 482 5 2 11 7 2 4-9-4-6-4-3-3z"/>
        <path fill="#345849" d="m372 443 5 5 1 3 8 1 2-2-1 8-4-1-6-5v-2h-2l-3-5z"/>
        <path fill="#A6D0B8" d="m628 624 1 3-15 10-3-1 3-1 1-3 9-5z"/>
        <path fill="#B9DDCB" d="M415 614h10l7 1v1h-7v2h5v1h-9l-5-2z"/>
        <path fill="#E6B888" d="m581 454 5 2 5 3 4 2 3 3 8 4-1 2-17-9-7-5z"/>
        <path fill="#202A1B" d="m526 453 5 2-4 1-2 5-8 8-1 2-6 3-2-1 9-7 6-7z"/>
        <path fill="#9AC9BC" d="m676 711 7 1 2 1-1 3-6 1-6-2z"/>
        <path fill="#35594A" d="M692 448h2l-1 9-4 1-3-1v-2h-2l-2-5 9 3z"/>
        <path fill="#305446" d="m662 678 1 3-5 6-13 6h-3v-3l5-1 7-2 2-5h3z"/>
        <path fill="#335647" d="m438 660 11 3 4-1 3 3 9 5-2 1-9-4-13-4z"/>
        <path fill="#1B3A30" d="m682 452 2 1v2h2v2h7v5l-4 1-4-1z"/>
        <path fill="#416653" d="m704 419 3 1-3 9-4 4v-10z"/>
        <path fill="#F7C594" d="m521 364 41 1v2h-41z"/>
        <path fill="#C4E7D6" d="M426 621h8l16 3 2 1v2l-13-2-13-3z"/>
        <path fill="#F1C496" d="m619 489 3 1 4 4v4h-8z"/>
        <path fill="#1D2416" d="m744 470 3 4v5l-11 6-5 2 5-5 8-4h2l-2-5z"/>
        <path fill="#E6B788" d="m556 456 3 1 4 7 2 1v2h2l5 5-1 2-9-7-6-9z"/>
        <path fill="#E8C196" d="m559 351 3 4 1 6-4-3-5-1 1-2-3-1v-2z"/>
        <path fill="#A0CEC0" d="m403 690 19 1v1l-6 1h-16l-1-2z"/>
        <path fill="#1B3A30" d="M718 673h4l-1 2-17 3v3l-3 1v-3l3-5z"/>
        <path fill="#15362F" d="m490 345 4 1 1 5-2 2-5-1v-6z"/>
        <path fill="#E6C297" d="m467 460 2 1-1 2-10 5h-6l1-3z"/>
        <path fill="#E7C7A0" d="m613 462 9 1 6 2-1 3-8-1-6-4z"/>
        <path fill="#8DBDB2" d="m571 715 6 1-2 2-10 4h-5v-2z"/>
        <path fill="#1C2113" d="m585 490 4 2 2 5-4 3h-12v-2h13z"/>
        <path fill="#1C2214" d="m531 456 3 1-1 4-6 9-7 6-2-1 6-5 7-10-1-3z"/>
        <path fill="#F0D8BA" d="m598 454 5 1 10 5v2l-6-1-8-4z"/>
        <path fill="#1D2516" d="m558 437 2 1 6 16 5 7-1 2-6-8-5-12z"/>
        <path fill="#CEEDDC" d="m585 393 4 1 2 2v3h-2l-1 3-5-4z"/>
        <path fill="#BBDFCD" d="m613 622 2 1-5 4v3l-7 4-3-1 5-5z"/>
        <path fill="#8AAF8B" d="m380 439 5 5v3l-7-1v-2h-3v-3z"/>
        <path fill="#E2E5D5" d="M521 410h4v2l-10 5-7 6 2-5 9-7z"/>
        <path fill="#C1E4D4" d="m568 708 3 1-1 2-10 4-5 4-2-1 5-5z"/>
        <path fill="#BDE2D1" d="m625 612 6 1-5 5-4 2-3-3z"/>
        <path fill="#88B8AE" d="m479 730 8 1 9 5v3l-17-8z"/>
        <path fill="#A3CBAB" d="M603 653h4v2l-17 6-4-1 12-5z"/>
        <path fill="#1D2315" d="m525 420 2 1-4 4h-2l-2 5-5 9-3 2 2-5 5-9 5-5z"/>
        <path fill="#E6B889" d="m525 417 3 1-10 10-3 4-1-4 7-8z"/>
        <path fill="#8BBBB1" d="m708 445 3 1-4 5h-7l1-4z"/>
        <path fill="#D0EDDD" d="m497 393 4 2v4l-4 2-3-3 2-4z"/>
        <path fill="#335344" d="m456 654 5 1 12 6-1 2-6-2-10-6z"/>
        <path fill="#1A3B33" d="m672 640 2 1-17 17v-3l9-10z"/>
        <path fill="#1D2415" d="m351 441 1 2-6 13v5h-2l-1-5 6-13z"/>
        <path fill="#ECCDA8" d="m537 427 14 1 3 4-3 1-7-3-8-1z"/>
        <path fill="#97BC95" d="m438 641 7 1 4 2-1 1 2 2-1 2-5-2v-2l-5-2z"/>
        <path fill="#1C2214" d="M490 460h2v2l-8 5-10 5-3-1 18-10z"/>
        <path fill="#8BBBB1" d="m609 753 4 1h3l-1 2-10 2-3-3z"/>
        <path fill="#709C90" d="m431 698 10 1 9 1v2l-10 1-3-1v-2l-6-1z"/>
        <path fill="#9FCDBF" d="m418 618 12 1-1 2 3 2h-7l-6-2z"/>
        <path fill="#212D23" d="m604 548 4 1-4 11h-3l-1-2z"/>
        <path fill="#BEE1D0" d="M561 733h3v2l-13 6-2-1v-2z"/>
        <path fill="#335748" d="m419 621 5 5 15 4-4 1-9-1-7-6z"/>
        <path fill="#20291B" d="m578 428 3 3 6 9 3 4-1 2-7-8-4-8z"/>
        <path fill="#1E2A1D" d="m440 582 5 1-3 2h-16l3-2z"/>
        <path fill="#1C3C31" d="M699 449h1v11l5-5h2l-2 6-5 1-1-1z"/>
        <path fill="#9ECCBE" d="M616 730h5l-1 3h-6v2h-4v-2l-2-1z"/>
        <path fill="#A0CEC0" d="m478 692 4 1 7 6-1 2-5-4-5-1-1-3z"/>
        <path fill="#BEE2D1" d="M627 677h2l-2 4-9 8-2-1 4-5z"/>
        <path fill="#2B4E40" d="m613 676 2 1-3 4-9 4h-3l-1-2 9-3v-2z"/>
        <path fill="#E7BA8C" d="m479 479 2 1-3 1v3l-5 3-2 5-3 1 2-5 7-8z"/>
        <path fill="#8CBBB1" d="m416 449 5 2 1 3-8 4 1-7z"/>
        <path fill="#8FBEB4" d="m593 707 5 1-3 2-15 3 3-3z"/>
        <path fill="#151C17" d="M625 570h3l-1 7-2 3h-3z"/>
        <path fill="#E3B17F" d="m484 483 2 1-8 8-3 4-1-3 8-9z"/>
        <path fill="#E8BC8F" d="m592 481 1 4 5 5v3h-2l-2-5h-2v-2l-3-1 1-3z"/>
        <path fill="#E7B786" d="m352 441 5 2 4 3v3l-5-2-4-2z"/>
        <path fill="#8AAF8C" d="m403 435 5 4-1 4-4-1-2-1 1-4z"/>
        <path fill="#1B3C32" d="m637 361 5 1-1 5-5-1z"/>
        <path fill="#A9D7C7" d="m633 711 5 1 8-1v2l-9 2h-3z"/>
        <path fill="#9FC292" d="m473 653 5 2 6 4-1 3-11-7z"/>
        <path fill="#E6B687" d="M451 486h4l-1 3h-2l-2 5-3 3 1-5z"/>
        <path fill="#E8BB8D" d="M738 469h5l3 9-4-1v-5l-4-2z"/>
        <path fill="#CEEDDC" d="m490 378 5 1 1 2h-2l-1 3-5-2z"/>
        <path fill="#1D2517" d="m727 443 2 1-9 10-1-2 6-8z"/>
        <path fill="#E4B281" d="m592 478 5 2 6 7h-3l-2-4-5-2z"/>
        <path fill="#1B3A30" d="m394 454 3 3v2h2l2-4 2-1-2 5-6 3-1-2z"/>
        <path fill="#A6D2BE" d="M641 613h3l-1 3-8 6v-3z"/>
        <path fill="#E6B382" d="m526 488 2 1-5 5-4 3h-2l2-4z"/>
        <path fill="#E4B280" d="m729 474 2 1-5 5-2 5-4 2 2-5z"/>
        <path fill="#EDB37D" d="M732 448h3l2 4v3h-3l-4-5z"/>
        <path fill="#EABB8C" d="m493 424 2 1-5 4-5 3-2-1 4-4z"/>
        <path fill="#AFD8C5" d="m584 639 4 1-2 2-10 2 2-3z"/>
        <path fill="#BEE3D3" d="m637 612 2 2-9 5v-3l3-3z"/>
    </g>
</svg>
